<svg width="40" height="40" viewBox="0 0 40 40" fill="none" xmlns="http://www.w3.org/2000/svg">
<path d="M19.404 5.05617C19.5714 5.28803 19.659 5.56801 19.6535 5.85395C19.648 6.13988 19.5498 6.4163 19.3736 6.64156C18.3603 7.93786 16.2119 10.5335 14.0758 12.1098C11.4406 14.0573 9.03966 14.9306 7.81639 15.2866C7.27474 15.4449 6.69657 15.2349 6.37098 14.7754C5.56763 13.6465 4.28959 11.2273 4.79168 7.80397C5.50069 2.93522 11.0784 0.586051 14.6935 1.75455C18.3085 2.92305 19.404 5.05617 19.404 5.05617Z" fill="#FFC107"/>
<path d="M8.30029 14.3768C7.94426 14.5259 7.6217 14.109 7.84993 13.8017C8.51938 12.907 9.81873 11.4403 12.1892 9.52934C14.7605 7.45708 16.5832 6.72372 17.5783 6.46507C17.9222 6.37682 18.1869 6.76328 17.98 7.05236C17.3075 7.99568 15.8925 9.718 13.5768 11.3703C11.3311 12.974 9.42619 13.9021 8.30029 14.3768Z" fill="url(#paint0_radial_129_18)"/>
<path d="M10.8046 3.02955C10.9446 3.63206 11.7053 3.84203 12.4417 3.71727C13.239 3.58337 14.2432 3.47079 14.1488 2.66136C14.0515 1.82454 12.7186 1.85801 12.2257 1.8854C11.5045 1.928 10.6798 2.49703 10.8046 3.02955Z" fill="#FFEE58"/>
<path d="M26.482 1.50199C30.1214 0.522152 35.4648 1.77586 36.536 8.08089C36.9437 10.4757 35.9913 12.5967 35.3249 13.7286C34.9962 14.2885 34.3542 14.5868 33.7182 14.4589C32.4766 14.2094 30.164 13.5126 27.0662 11.5773C25.3439 10.5031 23.0008 8.40953 21.6741 7.17712C21.0746 6.62026 21.0168 5.68607 21.5554 5.06835C22.6083 3.86029 24.4615 2.04668 26.482 1.50199Z" fill="#FFC107"/>
<path d="M23.1864 7.21668C22.9947 7.02498 23.1773 6.70242 23.442 6.76937C24.6044 7.06149 26.7497 7.71573 28.6546 8.90553C30.6082 10.1288 32.5831 11.9881 33.5842 12.9831C33.782 13.1779 33.5873 13.5065 33.3195 13.4274C32.0962 13.0714 29.8475 12.2802 27.6231 10.78C25.3621 9.25547 23.9228 7.95004 23.1864 7.21668Z" fill="url(#paint1_radial_129_18)"/>
<path d="M26.2811 3.97288C25.0792 4.35021 24.7414 3.50122 25.3835 2.85611C25.846 2.39053 27.7965 1.5598 29.4884 1.91279C30.6052 2.1471 30.9551 3.75683 29.3819 3.73553C28.3108 3.72031 27.7539 3.51035 26.2811 3.97288Z" fill="#FFEE58"/>
<path d="M34.3237 36.9008C30.5352 34.5182 27.9974 29.8777 27.5349 24.4855C27.118 19.6137 28.2986 14.6811 29.248 10.7191L31.1955 11.6046C30.2887 15.3962 29.5767 19.7963 29.9601 24.2756C30.3557 28.91 32.4736 32.8598 35.62 34.8377L34.3237 36.9008ZM19.2793 36.061L18.2751 33.8427C19.4649 33.3041 20.1526 31.743 19.7449 30.5045C19.5471 29.899 19.121 29.3208 18.6737 28.7092C18.3086 28.2101 17.9282 27.6928 17.6178 27.0994C16.8084 25.5475 16.6167 23.6913 17.0975 22.0086C17.3409 21.1596 17.7274 20.4079 18.1047 19.6807C18.5307 18.8591 18.9293 18.0862 19.0328 17.3072C19.1271 16.586 18.9567 15.8222 18.5611 15.2106C18.2021 14.6598 17.6482 14.1851 17.061 13.686C16.6167 13.3057 16.1542 12.9131 15.7312 12.4506C14.73 11.3551 14.3405 10.0497 14.3466 8.5921L16.0416 7.95004C16.0416 7.95004 16.3489 9.60541 16.7627 10.2657C17.1979 10.9565 17.846 11.4251 18.4607 11.9485C19.1545 12.5419 20.0522 13.0379 20.603 13.8899C21.3089 14.9793 21.6163 16.3425 21.4459 17.6328C21.2876 18.8317 20.7673 19.8359 20.2652 20.8066C19.9305 21.4547 19.614 22.0664 19.4375 22.6841C19.1271 23.7735 19.2489 24.9754 19.7753 25.9796C20.0005 26.4117 20.3078 26.8317 20.6364 27.279C21.1781 28.0184 21.738 28.7792 22.0575 29.7529C22.8578 32.1721 21.6102 35.0081 19.2793 36.061Z" fill="#03A9F4"/>
<path d="M4.04308 37.8929L2.60376 35.9301C11.8331 29.1687 12.816 19.2668 12.1648 14.2216L14.0027 13.6586C14.7239 19.2364 14.2796 30.395 4.04308 37.8929Z" fill="#F48FB1"/>
<path d="M29.7288 22.6932L29.8901 22.818C29.8718 21.8168 29.9205 20.8096 30.0148 19.8115C29.1993 19.1329 28.4386 18.4057 27.8908 17.5536C27.8756 17.5293 27.8634 17.505 27.8482 17.4806C27.6839 18.5761 27.5561 19.6959 27.4952 20.8248C28.2225 21.5217 29.0015 22.1303 29.7288 22.6932Z" fill="#0076C6"/>
<path d="M35.8178 29.3847L33.6086 28.3592C34.1716 27.1481 33.6999 25.6845 33.0731 24.7198C32.2576 23.4661 30.9734 22.468 29.7289 21.5034C28.393 20.4688 26.8806 19.2973 25.8399 17.6754C23.9259 14.6963 24.2637 10.9869 26.4212 8.17826L28.1891 9.16723C26.6372 11.1908 26.5124 14.2125 27.8879 16.3578C28.7003 17.6267 29.9814 18.6156 31.2199 19.5772C32.5588 20.6149 34.0742 21.7895 35.1149 23.3901C36.3686 25.3223 36.6394 27.6198 35.8178 29.3847ZM3.58063 28.5448C3.12418 25.9644 5.01082 24.6285 6.02413 23.9104C6.14585 23.8252 6.29495 23.7187 6.39842 23.6365C6.38929 23.4205 6.24322 23.1497 5.96936 22.6902C5.519 21.9325 4.90432 20.8918 5.37598 19.5681C5.78678 18.4179 6.97962 18.0375 7.77079 17.5932C8.44633 17.2128 8.93625 16.7503 9.17969 15.9774C9.46268 15.0767 9.26489 12.8127 9.26489 12.8127L10.7499 11.9455C10.7499 11.9455 11.2185 14.109 11.2185 15.2106C11.2185 18.3326 9.48703 19.1299 8.75672 19.5407C8.25158 19.8237 7.77384 20.0915 7.67038 20.3836C7.5943 20.5966 7.70081 20.837 8.06596 21.4517C8.50415 22.1881 9.10057 23.2014 8.71107 24.4947C8.52241 25.1246 7.99293 25.5019 7.43302 25.8975C6.44102 26.6004 5.80199 27.136 5.97849 28.1219L3.58063 28.5448ZM23.6825 25.4015C22.5992 25.1428 21.8597 24.4977 21.1964 23.95L22.7483 22.0725C22.7483 22.0725 23.2991 22.891 24.5071 23.2683L23.6825 25.4015ZM21.7289 11.702L19.9305 10.6461L21.2329 8.58602L23.0343 9.64193L21.7289 11.702ZM26.3968 34.926L23.9716 33.4197L25.843 31.3383L27.7144 33.1154L26.3968 34.926Z" fill="#F44336"/>
<path d="M34.0763 18.6783L35.5034 16.7065L37.6214 18.2389L36.1939 20.2108L34.0763 18.6783Z" fill="#FB8C00"/>
<path d="M16.9392 17.7332L14.7909 16.2482L15.9077 14.7663L18.053 16.2513L16.9392 17.7332Z" fill="#F44336"/>
<path d="M19.538 20.3288C19.538 20.3288 19.9518 20.3136 20.4661 20.414C20.8373 19.6837 21.1903 18.923 21.3729 18.0679C20.7399 17.9249 20.2318 17.9949 20.2318 17.9949L19.538 20.3288Z" fill="#0076C6"/>
<path d="M22.4257 20.6149C21.5767 19.8906 20.1587 19.9424 20.1587 19.9424L20.8494 17.6084C20.8494 17.6084 22.4196 17.3893 23.4786 18.4939L22.4257 20.6149ZM2.2572 30.2854L4.46548 30.1503L4.61368 32.5804L2.4057 32.7149L2.2572 30.2854ZM13.9815 29.8594L12.5786 27.8693C13.1994 27.4311 13.7685 26.9108 14.2614 26.3296L16.1176 27.9058C15.4899 28.6436 14.7722 29.2999 13.9815 29.8594Z" fill="#FB8C00"/>
<path d="M13.9997 35.4828C13.2694 34.8803 12.4965 34.3204 11.6992 33.8153L13.0016 31.7582C13.8841 32.3151 14.7391 32.9359 15.5486 33.6023L13.9997 35.4828Z" fill="#F44336"/>
<path d="M27.5774 24.7411C27.6626 25.7484 27.7813 26.4726 28.0065 27.4159L29.6101 26.1287L28.0491 24.1782L27.5774 24.7411Z" fill="#0076C6"/>
<path d="M24.9971 26.2943L27.4497 24.3282L28.9721 26.2273L26.5195 28.1937L24.9971 26.2943Z" fill="#FFC107"/>
<path d="M24.1602 38.4862C23.7342 37.7042 23.2564 36.9404 22.7391 36.2162L24.7201 34.8012C25.2973 35.6086 25.8237 36.4511 26.2964 37.3238L24.1602 38.4862Z" fill="#FB8C00"/>
<defs>
<radialGradient id="paint0_radial_129_18" cx="0" cy="0" r="1" gradientUnits="userSpaceOnUse" gradientTransform="translate(12.914 10.4319) scale(4.59549)">
<stop offset="0.376" stop-color="#AF5700"/>
<stop offset="1" stop-color="#8F4700"/>
</radialGradient>
<radialGradient id="paint1_radial_129_18" cx="0" cy="0" r="1" gradientUnits="userSpaceOnUse" gradientTransform="translate(28.3841 10.0984) scale(6.4584)">
<stop offset="0.376" stop-color="#AF5700"/>
<stop offset="1" stop-color="#8F4700"/>
</radialGradient>
</defs>
</svg>
