<svg width="40" height="40" viewBox="0 0 40 40" fill="none" xmlns="http://www.w3.org/2000/svg">
<path d="M35.5348 16.3152C35.5348 16.3152 33.709 18.0192 30.6052 20.0276C29.7532 15.098 27.3796 9.01203 22.7543 1.58719C22.7543 1.58719 21.2329 9.55977 16.1815 17.0455C13.9906 13.6373 13.0168 10.9595 13.0168 10.9595C-2.8066 26.8438 10.339 38.1028 18.6159 38.1028C29.2054 38.1028 38.5169 32.9906 35.5348 16.3152Z" fill="#FF9D33"/>
<path d="M29.2663 30.4345C30.1792 28.4262 30.8486 25.8092 30.9703 22.5228C30.9703 22.5228 29.6923 23.6183 27.5014 25.018C26.8928 21.7316 25.2496 17.7149 22.024 12.7245C22.024 12.7245 20.9894 18.0192 17.4596 23.0705C15.9381 20.8187 15.2686 18.993 15.2686 18.993C12.6517 23.1314 11.6171 26.4178 11.5562 29.0348C10.0956 28.487 9.18268 28.061 9.18268 28.061C11.6779 35.4859 16.851 37.1291 19.1636 37.1291C23.3021 37.1291 27.5013 35.9119 31.6398 30.0085C31.6398 29.9477 30.7269 30.1911 29.2663 30.4345Z" fill="#FFCE31"/>
<path d="M14.1732 27.0873C14.1732 27.0873 15.8772 29.3999 17.1553 28.8522C17.1553 28.8522 19.5896 25.018 23.1195 22.888C23.1195 22.888 22.3892 28.7305 23.2412 29.7651C24.3367 31.1648 27.3188 28.2436 27.3188 28.2436C27.3188 31.7126 23.5455 36.0336 20.1374 36.0336C16.851 36.0336 12.1039 32.2603 14.1732 27.0873Z" fill="#FFDF85"/>
<path d="M31.1529 11.3855C32.431 9.55977 33.283 7.61227 33.283 7.61227C35.4131 11.1421 34.135 13.2722 33.2221 13.9416C31.9441 14.9154 29.6923 13.5156 31.1529 11.3855ZM7.90464 10.777C6.6266 8.64688 6.50488 5.96906 6.50488 5.96906C3.46191 10.5335 4.61824 13.0896 5.65285 13.8199C6.99175 14.8545 9.30441 13.2722 7.90464 10.777ZM14.9643 6.02992C15.1469 4.5693 14.5383 3.10867 14.5383 3.10867C17.3987 4.99531 17.3987 6.57766 17.0335 7.24711C16.4858 8.03828 14.7818 7.67313 14.9643 6.02992Z" fill="#FF9D33"/>
</svg>
