<svg width="45" height="40" viewBox="0 0 45 40" fill="none" xmlns="http://www.w3.org/2000/svg">
<g clip-path="url(#clip0_129_37)">
<path d="M17.163 11.3003C16.1893 12.7934 15.0776 15.0087 13.8279 17.9462C13.4709 17.2159 13.1706 16.6276 12.9272 16.1813C12.6838 15.735 12.3551 15.2197 11.9413 14.6354C11.5274 14.0512 11.1136 13.5927 10.6997 13.26C10.2859 12.9273 9.77468 12.6433 9.16609 12.408C8.5575 12.1727 7.89616 12.055 7.18207 12.055H1.72907C1.50186 12.055 1.31523 11.982 1.16917 11.8359C1.0231 11.6898 0.950073 11.5032 0.950073 11.276V6.602C0.950073 6.37479 1.0231 6.18816 1.16917 6.0421C1.31523 5.89603 1.50186 5.823 1.72907 5.823H7.18207C11.2394 5.823 14.5663 7.64878 17.163 11.3003ZM44.5741 30.751C44.5741 30.9782 44.501 31.1648 44.355 31.3109L36.565 39.1009C36.4189 39.247 36.2323 39.32 36.0051 39.32C35.7941 39.32 35.6115 39.2429 35.4573 39.0887C35.3032 38.9346 35.2261 38.752 35.2261 38.541V33.867C34.7067 33.867 34.017 33.8711 33.1569 33.8792C32.2967 33.8873 31.6394 33.8954 31.185 33.9035C30.7306 33.9116 30.1382 33.9035 29.4079 33.8792C28.6776 33.8548 28.1015 33.8143 27.6795 33.7575C27.2576 33.7007 26.7382 33.6155 26.1215 33.5019C25.5048 33.3882 24.9936 33.2381 24.5879 33.0515C24.1821 32.8649 23.7115 32.6336 23.1759 32.3577C22.6404 32.0818 22.1616 31.7572 21.7396 31.3839C21.3177 31.0107 20.8714 30.5765 20.4007 30.0816C19.9301 29.5866 19.4757 29.0226 19.0375 28.3897C19.995 26.8803 21.0986 24.6651 22.3482 21.7438C22.7053 22.4741 23.0055 23.0624 23.2489 23.5087C23.4924 23.955 23.821 24.4703 24.2349 25.0546C24.6487 25.6388 25.0626 26.0973 25.4764 26.43C25.8902 26.7627 26.4015 27.0467 27.0101 27.282C27.6187 27.5173 28.28 27.635 28.9941 27.635H35.2261V22.961C35.2261 22.7338 35.2991 22.5472 35.4452 22.4011C35.5912 22.255 35.7779 22.182 36.0051 22.182C36.1998 22.182 36.3946 22.2631 36.5893 22.4254L44.355 30.1911C44.501 30.3372 44.5741 30.5238 44.5741 30.751ZM44.5741 8.939C44.5741 9.16621 44.501 9.35285 44.355 9.49891L36.565 17.2889C36.4189 17.435 36.2323 17.508 36.0051 17.508C35.7941 17.508 35.6115 17.4309 35.4573 17.2767C35.3032 17.1226 35.2261 16.94 35.2261 16.729V12.055H28.9941C28.2151 12.055 27.5091 12.1767 26.8762 12.4202C26.2432 12.6636 25.6833 13.0288 25.1964 13.5156C24.7096 14.0025 24.2957 14.5016 23.9549 15.0128C23.6141 15.524 23.2489 16.1529 22.8594 16.8994C22.3401 17.9056 21.7072 19.2932 20.9606 21.0622C20.49 22.1333 20.0883 23.034 19.7556 23.7643C19.4229 24.4947 18.9847 25.3467 18.4411 26.3204C17.8974 27.2942 17.378 28.1056 16.8831 28.7548C16.3881 29.404 15.7876 30.0775 15.0816 30.7753C14.3757 31.4732 13.6453 32.0291 12.8907 32.4429C12.136 32.8567 11.2718 33.1976 10.2981 33.4653C9.32432 33.7331 8.28566 33.867 7.18207 33.867H1.72907C1.50186 33.867 1.31523 33.794 1.16917 33.6479C1.0231 33.5019 0.950073 33.3152 0.950073 33.088V28.414C0.950073 28.1868 1.0231 28.0002 1.16917 27.8541C1.31523 27.708 1.50186 27.635 1.72907 27.635H7.18207C7.96107 27.635 8.66704 27.5133 9.29998 27.2698C9.93292 27.0264 10.4928 26.6613 10.9797 26.1744C11.4666 25.6875 11.8804 25.1885 12.2212 24.6772C12.562 24.166 12.9272 23.5371 13.3167 22.7906C13.836 21.7844 14.469 20.3968 15.2155 18.6278C15.6862 17.5567 16.0878 16.656 16.4205 15.9257C16.7532 15.1953 17.1914 14.3433 17.7351 13.3696C18.2788 12.3958 18.7981 11.5844 19.2931 10.9352C19.7881 10.286 20.3886 9.61251 21.0945 8.91466C21.8005 8.21681 22.5308 7.66096 23.2855 7.24711C24.0401 6.83327 24.9043 6.49246 25.8781 6.22468C26.8518 5.95689 27.8905 5.823 28.9941 5.823H35.2261V1.149C35.2261 0.921794 35.2991 0.735159 35.4452 0.589097C35.5912 0.443034 35.7779 0.370003 36.0051 0.370003C36.1998 0.370003 36.3946 0.451149 36.5893 0.61344L44.355 8.3791C44.501 8.52516 44.5741 8.71179 44.5741 8.939Z" fill="#C1C1C1"/>
</g>
<defs>
<clipPath id="clip0_129_37">
<rect width="43.624" height="38.95" fill="white" transform="translate(0.950073 0.370003)"/>
</clipPath>
</defs>
</svg>
