<svg width="40" height="40" viewBox="0 0 40 40" fill="none" xmlns="http://www.w3.org/2000/svg">
<g clip-path="url(#clip0_129_40)">
<path d="M20.32 0.475006C18.3117 0.475006 16.6685 2.11821 16.6685 4.12657C16.6685 6.13493 18.3117 7.77813 20.32 7.77813C22.3284 7.77813 23.9716 6.13493 23.9716 4.12657C23.9716 2.11821 22.3284 0.475006 20.32 0.475006ZM20.32 6.74352C18.8594 6.74352 17.7031 5.58719 17.7031 4.12657C17.7031 2.66594 18.8594 1.50962 20.32 1.50962C21.7806 1.50962 22.937 2.66594 22.937 4.12657C22.937 5.58719 21.7806 6.74352 20.32 6.74352Z" fill="#D0D0D0"/>
<path d="M19.4072 5.70892H21.2329V9.66478H19.4072V5.70892Z" fill="#4E5C66"/>
<path d="M21.8415 7.53469H18.7985V4.06571C18.7985 3.15282 21.8415 3.15282 21.8415 4.06571V7.53469Z" fill="#647A87"/>
<path d="M7.37952 13.0644L9.18643 11.2569L10.994 13.0638L9.18765 14.8713L7.37952 13.0644Z" fill="#4E5C66"/>
<path d="M10.3391 11.1863L7.29613 14.2292L5.40949 12.3426C5.04433 11.9774 5.04433 11.3688 5.40949 11.0037L7.11355 9.29962C7.47871 8.93446 8.0873 8.93446 8.45246 9.29962L10.3391 11.1863Z" fill="#647A87"/>
<path d="M29.6583 13.0759L31.4658 11.2684L33.2734 13.0759L31.4658 14.8835L29.6583 13.0759Z" fill="#4E5C66"/>
<path d="M33.3439 14.2292L30.301 11.1863L32.1876 9.29962C32.5528 8.93446 33.1614 8.93446 33.5265 9.29962L35.2306 11.0037C35.5957 11.3688 35.5957 11.9774 35.2306 12.3426L33.3439 14.2292Z" fill="#647A87"/>
<path d="M20.32 39.425C28.7229 39.425 35.5349 32.6131 35.5349 24.2102C35.5349 15.8072 28.7229 8.99532 20.32 8.99532C11.9171 8.99532 5.10516 15.8072 5.10516 24.2102C5.10516 32.6131 11.9171 39.425 20.32 39.425Z" fill="#647A87"/>
<path d="M20.32 37.4166C27.6138 37.4166 33.5265 31.5039 33.5265 24.2102C33.5265 16.9164 27.6138 11.0037 20.32 11.0037C13.0263 11.0037 7.11353 16.9164 7.11353 24.2102C7.11353 31.5039 13.0263 37.4166 20.32 37.4166Z" fill="#D2D3D5"/>
<path d="M20.32 36.382C27.0423 36.382 32.4919 30.9325 32.4919 24.2102C32.4919 17.4878 27.0423 12.0383 20.32 12.0383C13.5977 12.0383 8.14813 17.4878 8.14813 24.2102C8.14813 30.9325 13.5977 36.382 20.32 36.382Z" fill="white"/>
<path d="M32.4919 24.2102C32.4919 27.5574 31.153 30.6004 28.962 32.7913L20.32 24.2102V12.0383C27.0145 12.0383 32.4919 17.5156 32.4919 24.2102Z" fill="#ED4C5C"/>
<path d="M27.3188 31.1481L21.1112 23.7841L19.894 25.0013L27.3188 31.1481ZM19.894 13.0729H20.746V16.481H19.894V13.0729ZM19.894 31.9393H20.746V35.3474H19.894V31.9393ZM9.18274 23.7841H12.5909V24.6362H9.18274V23.7841ZM28.0491 23.7841H31.4573V24.6362H28.0491V23.7841ZM14.3424 14.7544L15.0806 14.3284L15.9327 15.8043L15.1944 16.2303L14.3424 14.7544ZM10.417 19.0146L10.843 18.277L12.3188 19.129L11.8928 19.8672L10.417 19.0146ZM10.4371 29.4514L11.9123 28.5981L12.3383 29.3357L10.8637 30.189L10.4371 29.4514ZM14.3874 33.6896L15.2395 32.2138L15.9771 32.6398L15.1251 34.1156L14.3874 33.6896ZM24.6763 32.5637L25.4139 32.1377L26.266 33.6135L25.529 34.0396L24.6763 32.5637ZM28.2926 29.3406L28.7186 28.6024L30.1944 29.455L29.7684 30.1933L28.2926 29.3406ZM28.2475 19.115L29.7228 18.263L30.1488 19.0006L28.6736 19.8526L28.2475 19.115ZM24.6629 15.7811L25.5156 14.3059L26.2532 14.7319L25.4012 16.2078L24.6629 15.7811Z" fill="#3E4347"/>
<path d="M20.32 25.9142C21.2612 25.9142 22.0241 25.1513 22.0241 24.2102C22.0241 23.269 21.2612 22.5061 20.32 22.5061C19.3789 22.5061 18.616 23.269 18.616 24.2102C18.616 25.1513 19.3789 25.9142 20.32 25.9142Z" fill="#3E4347"/>
</g>
<defs>
<clipPath id="clip0_129_40">
<rect width="38.95" height="38.95" fill="white" transform="translate(0.845032 0.475006)"/>
</clipPath>
</defs>
</svg>
